<?xml version="1.0" encoding="UTF-8" standalone="no"?>
<!DOCTYPE svg PUBLIC "-//W3C//DTD SVG 1.1//EN" "http://www.w3.org/Graphics/SVG/1.1/DTD/svg11.dtd">
<svg width="100%" height="100%" viewBox="0 0 1000 600" version="1.1" xmlns="http://www.w3.org/2000/svg" xmlns:xlink="http://www.w3.org/1999/xlink" xml:space="preserve" xmlns:serif="http://www.serif.com/" style="fill-rule:evenodd;clip-rule:evenodd;stroke-linejoin:round;stroke-miterlimit:2;">
    <rect id="Artboard1" x="0" y="0" width="1000" height="600" style="fill:none;"/>
    <g id="Artboard11" serif:id="Artboard1">
        <rect x="0" y="0" width="1000" height="600" style="fill:white;"/>
        <g transform="matrix(-7.26563,0,0,7.24227,596.84,50.1369)">
            <path d="M9.997,45.701L6.907,40.368C6.758,40.112 6.433,40.027 6.172,40.173L3.729,41.581C4.555,43.924 5.631,45.907 7.245,47.908L9.799,46.436C10.058,46.286 10.143,45.962 9.997,45.701Z" style="fill:rgb(0,20,186);fill-rule:nonzero;"/>
            <path d="M32.848,15.017C31.656,14.471 30.409,14.043 29.132,13.725C29.113,13.831 29.206,14.201 28.836,14.5C25.072,17.524 25.186,18.768 24.29,18.768L20.841,18.768C17.83,18.768 18.918,14.775 18.727,13.742C14.629,14.769 11.002,16.971 8.219,19.979C9.061,20.698 12.977,21.726 11.526,24.31C11.524,24.313 11.523,24.316 11.52,24.318L8.426,29.673C8.151,30.154 7.678,30.513 7.133,30.655C6.954,30.702 6.772,30.726 6.594,30.726C5.709,30.726 5.399,30.278 3.218,29.094C2.286,32.657 2.225,36.204 3.249,40.026L5.386,38.795C6.402,38.22 7.697,38.572 8.279,39.571L11.375,44.914C11.947,45.932 11.597,47.227 10.597,47.808C10.596,47.808 10.595,47.809 10.594,47.809L8.316,49.121C11.087,52.074 14.677,54.234 18.727,55.247L18.727,52.331C18.727,51.166 19.675,50.217 20.841,50.217C24.091,50.315 24.502,49.987 24.913,50.535C25.098,50.78 25.294,51.017 25.5,51.254C28.187,54.393 29.132,54.298 29.132,55.114L29.132,55.26C30.403,54.942 31.645,54.516 32.837,53.971C18.715,45.145 18.33,24.195 32.848,15.017Z" style="fill:rgb(0,20,186);fill-rule:nonzero;"/>
            <path d="M6.732,29.12C6.869,29.084 6.984,28.997 7.051,28.882L10.143,23.53C10.583,22.734 9.221,22.568 7.16,21.2C5.404,23.407 4.407,25.443 3.686,27.532L6.339,29.064C6.503,29.161 6.655,29.14 6.732,29.12Z" style="fill:rgb(0,20,186);fill-rule:nonzero;"/>
            <path d="M23.89,51.804L20.841,51.804C20.54,51.804 20.314,52.03 20.314,52.331L20.314,55.583C22.547,55.963 24.79,56.07 27.545,55.597L27.545,55.488C26.143,54.316 24.891,53.037 23.89,51.804Z" style="fill:rgb(0,20,186);fill-rule:nonzero;"/>
            <path d="M20.841,17.181L23.904,17.181C24.901,15.952 26.167,14.647 27.545,13.504L27.545,13.389C25.17,12.985 22.759,12.99 20.314,13.407L20.314,16.653C20.314,16.959 20.535,17.181 20.841,17.181Z" style="fill:rgb(0,20,186);fill-rule:nonzero;"/>
        </g>
        <g transform="matrix(-7.26563,0,0,7.26563,750.64,49.3312)">
            <path d="M9.997,45.701L6.907,40.368C6.758,40.112 6.433,40.027 6.172,40.173L3.729,41.581C4.555,43.924 5.631,45.907 7.245,47.908L9.799,46.436C10.058,46.286 10.143,45.962 9.997,45.701Z" style="fill:rgb(218,111,0);fill-rule:nonzero;"/>
            <path d="M32.848,15.017C31.656,14.471 30.409,14.043 29.132,13.725C29.113,13.831 29.206,14.201 28.836,14.5C25.072,17.524 25.186,18.768 24.29,18.768L20.841,18.768C17.83,18.768 18.918,14.775 18.727,13.742C14.629,14.769 11.002,16.971 8.219,19.979C9.061,20.698 12.977,21.726 11.526,24.31C11.524,24.313 11.523,24.316 11.52,24.318L8.426,29.673C8.151,30.154 7.678,30.513 7.133,30.655C6.954,30.702 6.772,30.726 6.594,30.726C5.709,30.726 5.399,30.278 3.218,29.094C2.286,32.657 2.225,36.204 3.249,40.026L5.386,38.795C6.402,38.22 7.697,38.572 8.279,39.571L11.375,44.914C11.947,45.932 11.597,47.227 10.597,47.808C10.596,47.808 10.595,47.809 10.594,47.809L8.316,49.121C11.087,52.074 14.677,54.234 18.727,55.247L18.727,52.331C18.727,51.166 19.675,50.217 20.841,50.217C24.091,50.315 24.502,49.987 24.913,50.535C25.098,50.78 25.294,51.017 25.5,51.254C28.187,54.393 29.132,54.298 29.132,55.114L29.132,55.26C30.403,54.942 31.645,54.516 32.837,53.971C18.715,45.145 18.33,24.195 32.848,15.017Z" style="fill:rgb(218,111,0);fill-rule:nonzero;"/>
            <path d="M6.732,29.12C6.869,29.084 6.984,28.997 7.051,28.882L10.143,23.53C10.583,22.734 9.221,22.568 7.16,21.2C5.404,23.407 4.407,25.443 3.686,27.532L6.339,29.064C6.503,29.161 6.655,29.14 6.732,29.12Z" style="fill:rgb(218,111,0);fill-rule:nonzero;"/>
            <path d="M23.89,51.804L20.841,51.804C20.54,51.804 20.314,52.03 20.314,52.331L20.314,55.583C22.547,55.963 24.79,56.07 27.545,55.597L27.545,55.488C26.143,54.316 24.891,53.037 23.89,51.804Z" style="fill:rgb(218,111,0);fill-rule:nonzero;"/>
            <path d="M20.841,17.181L23.904,17.181C24.901,15.952 26.167,14.647 27.545,13.504L27.545,13.389C25.17,12.985 22.759,12.99 20.314,13.407L20.314,16.653C20.314,16.959 20.535,17.181 20.841,17.181Z" style="fill:rgb(218,111,0);fill-rule:nonzero;"/>
        </g>
        <g transform="matrix(-7.26563,0,0,7.26563,904.488,49.3312)">
            <path d="M9.997,45.701L6.907,40.368C6.758,40.112 6.433,40.027 6.172,40.173L3.729,41.581C4.555,43.924 5.631,45.907 7.245,47.908L9.799,46.436C10.058,46.286 10.143,45.962 9.997,45.701Z" style="fill:rgb(2,121,0);fill-rule:nonzero;"/>
            <path d="M32.848,15.017C31.656,14.471 30.409,14.043 29.132,13.725C29.113,13.831 29.206,14.201 28.836,14.5C25.072,17.524 25.186,18.768 24.29,18.768L20.841,18.768C17.83,18.768 18.918,14.775 18.727,13.742C14.629,14.769 11.002,16.971 8.219,19.979C9.061,20.698 12.977,21.726 11.526,24.31C11.524,24.313 11.523,24.316 11.52,24.318L8.426,29.673C8.151,30.154 7.678,30.513 7.133,30.655C6.954,30.702 6.772,30.726 6.594,30.726C5.709,30.726 5.399,30.278 3.218,29.094C2.286,32.657 2.225,36.204 3.249,40.026L5.386,38.795C6.402,38.22 7.697,38.572 8.279,39.571L11.375,44.914C11.947,45.932 11.597,47.227 10.597,47.808C10.596,47.808 10.595,47.809 10.594,47.809L8.316,49.121C11.087,52.074 14.677,54.234 18.727,55.247L18.727,52.331C18.727,51.166 19.675,50.217 20.841,50.217C24.091,50.315 24.502,49.987 24.913,50.535C25.098,50.78 25.294,51.017 25.5,51.254C28.187,54.393 29.132,54.298 29.132,55.114L29.132,55.26C30.403,54.942 31.645,54.516 32.837,53.971C18.715,45.145 18.33,24.195 32.848,15.017Z" style="fill:rgb(2,121,0);fill-rule:nonzero;"/>
            <path d="M6.732,29.12C6.869,29.084 6.984,28.997 7.051,28.882L10.143,23.53C10.583,22.734 9.221,22.568 7.16,21.2C5.404,23.407 4.407,25.443 3.686,27.532L6.339,29.064C6.503,29.161 6.655,29.14 6.732,29.12Z" style="fill:rgb(2,121,0);fill-rule:nonzero;"/>
            <path d="M23.89,51.804L20.841,51.804C20.54,51.804 20.314,52.03 20.314,52.331L20.314,55.583C22.547,55.963 24.79,56.07 27.545,55.597L27.545,55.488C26.143,54.316 24.891,53.037 23.89,51.804Z" style="fill:rgb(2,121,0);fill-rule:nonzero;"/>
            <path d="M20.841,17.181L23.904,17.181C24.901,15.952 26.167,14.647 27.545,13.504L27.545,13.389C25.17,12.985 22.759,12.99 20.314,13.407L20.314,16.653C20.314,16.959 20.535,17.181 20.841,17.181Z" style="fill:rgb(2,121,0);fill-rule:nonzero;"/>
        </g>
        <g transform="matrix(-7.26563,0,0,7.26563,596.84,49.3359)">
            <path d="M58.053,23.059L61.134,28.403C61.284,28.658 61.607,28.744 61.87,28.597L65.033,26.766C64.185,24.587 63.098,22.638 61.312,20.56L58.24,22.335C57.995,22.481 57.907,22.808 58.053,23.059Z" style="fill:rgb(216,13,13);fill-rule:nonzero;"/>
            <path d="M42.006,17.179L48.18,17.179C49.094,17.179 48.556,15.872 48.708,13.409C46.369,13.008 44.006,12.961 41.477,13.394C41.625,15.85 41.092,17.179 42.006,17.179Z" style="fill:rgb(216,13,13);fill-rule:nonzero;"/>
            <path d="M28.401,47.914C30.174,46.724 31.617,46.509 31.161,45.7C28.302,41.146 28.197,39.694 27.338,40.173L24.877,41.591C25.616,43.721 26.889,46.043 28.401,47.914Z" style="fill:rgb(216,13,13);fill-rule:nonzero;"/>
            <path d="M37.569,26.974C33.372,31.171 33.445,37.921 37.567,42.008C41.671,46.148 48.418,46.196 52.604,42.01C56.742,37.906 56.791,31.164 52.604,26.974C48.347,22.756 41.675,22.871 37.569,26.974Z" style="fill:rgb(216,13,13);fill-rule:nonzero;"/>
            <path d="M24.839,27.525C27.33,28.874 27.486,29.225 27.898,29.12C28.034,29.084 28.15,28.997 28.217,28.882L31.308,23.529C31.751,22.735 30.396,22.575 28.309,21.191C27.93,21.755 26.117,23.847 24.839,27.525Z" style="fill:rgb(216,13,13);fill-rule:nonzero;"/>
            <path d="M65.574,28.287L62.657,29.976C62.325,30.161 61.964,30.25 61.607,30.25C60.871,30.25 60.155,29.872 59.762,29.201L56.681,23.856C56.099,22.859 56.438,21.561 57.437,20.966L60.22,19.359C57.524,16.662 54.106,14.704 50.294,13.746L50.294,16.651C50.294,17.817 49.346,18.766 48.18,18.766L42.006,18.766C38.996,18.766 40.075,14.721 39.89,13.721C35.719,14.762 32.145,16.956 29.363,19.967C31.436,21.314 32.539,21.397 32.891,22.713C33.037,23.253 32.965,23.822 32.689,24.311C32.688,24.313 32.686,24.316 32.685,24.318L29.592,29.673C29.316,30.154 28.844,30.513 28.298,30.655C27.104,30.966 26.654,30.327 24.371,29.087C23.391,32.836 23.467,36.551 24.401,40.035L26.551,38.795C27.567,38.22 28.862,38.572 29.444,39.571L32.54,44.914C33.111,45.932 32.76,47.227 31.763,47.807C31.762,47.808 31.761,47.809 31.759,47.809L29.463,49.132C32.411,52.279 36.018,54.299 39.89,55.267L39.89,52.331C39.89,51.165 40.84,50.216 42.006,50.216L48.18,50.216C49.346,50.216 50.294,51.165 50.294,52.331L50.294,55.244C54.061,54.298 57.44,52.371 60.12,49.725L57.605,48.272C57.118,47.998 56.762,47.543 56.615,46.995C56.466,46.448 56.542,45.877 56.828,45.387L59.905,40.038C60.509,39.027 61.805,38.69 62.805,39.273L65.539,40.847C66.792,36.82 66.837,32.444 65.574,28.287ZM53.724,43.134C48.858,48 41.1,47.824 36.445,43.13C31.685,38.409 31.646,30.654 36.447,25.853C41.211,21.091 48.882,21.052 53.724,25.851C58.534,30.66 58.485,38.413 53.724,43.134Z" style="fill:rgb(216,13,13);fill-rule:nonzero;"/>
            <path d="M61.742,40.574C61.557,40.574 61.376,40.67 61.274,40.84L58.201,46.183C58.128,46.308 58.109,46.447 58.146,46.58C58.182,46.713 58.269,46.825 58.39,46.893L61.224,48.53C62.748,46.78 63.985,44.874 64.986,42.36L62.008,40.646C61.925,40.596 61.833,40.574 61.742,40.574Z" style="fill:rgb(216,13,13);fill-rule:nonzero;"/>
            <path d="M48.18,51.803L42.006,51.803C41.71,51.803 41.477,52.035 41.477,52.331L41.477,55.594C44.176,56.057 46.377,55.98 48.708,55.581L48.708,52.331C48.708,52.045 48.466,51.803 48.18,51.803Z" style="fill:rgb(216,13,13);fill-rule:nonzero;"/>
        </g>
    </g>
</svg>
