<?xml version="1.0" encoding="UTF-8" standalone="no"?>
<!DOCTYPE svg PUBLIC "-//W3C//DTD SVG 1.1//EN" "http://www.w3.org/Graphics/SVG/1.1/DTD/svg11.dtd">
<svg width="100%" height="100%" viewBox="0 0 1000 600" version="1.1" xmlns="http://www.w3.org/2000/svg" xmlns:xlink="http://www.w3.org/1999/xlink" xml:space="preserve" xmlns:serif="http://www.serif.com/" style="fill-rule:evenodd;clip-rule:evenodd;stroke-linejoin:round;stroke-miterlimit:2;">
    <rect id="Artboard1" x="0" y="0" width="1000" height="600" style="fill:white;"/>
    <g id="Artboard11" serif:id="Artboard1">
        <g transform="matrix(8.51838,0,0,8.51838,-3014.52,-1870.24)">
            <g transform="matrix(24,0,0,24,366.009,263.315)">
                <path d="M0.585,-0.356C0.585,-0.492 0.583,-0.572 0.512,-0.643C0.464,-0.691 0.404,-0.718 0.322,-0.718C0.24,-0.718 0.179,-0.691 0.131,-0.643C0.06,-0.572 0.059,-0.492 0.059,-0.356C0.059,-0.22 0.06,-0.14 0.131,-0.069C0.179,-0.021 0.24,0.006 0.322,0.006C0.404,0.006 0.464,-0.021 0.512,-0.069C0.583,-0.14 0.585,-0.22 0.585,-0.356ZM0.446,-0.356C0.446,-0.22 0.437,-0.187 0.411,-0.157C0.391,-0.134 0.36,-0.118 0.322,-0.118C0.284,-0.118 0.253,-0.134 0.232,-0.157C0.206,-0.187 0.198,-0.22 0.198,-0.356C0.198,-0.492 0.206,-0.526 0.232,-0.556C0.253,-0.579 0.284,-0.594 0.322,-0.594C0.36,-0.594 0.391,-0.579 0.411,-0.556C0.437,-0.526 0.446,-0.492 0.446,-0.356Z" style="fill:rgb(0,155,223);fill-rule:nonzero;"/>
            </g>
            <g transform="matrix(24,0,0,24,381.465,263.315)">
                <path d="M0.294,-0L0.294,-0.11L0.244,-0.11C0.211,-0.11 0.198,-0.126 0.198,-0.157L0.198,-0.712L0.068,-0.712L0.068,-0.149C0.068,-0.075 0.113,-0 0.22,-0L0.294,-0Z" style="fill:rgb(0,155,223);fill-rule:nonzero;"/>
            </g>
            <g transform="matrix(24,0,0,24,389.265,263.315)">
                <path d="M0.203,-0L0.203,-0.506L0.073,-0.506L0.073,-0L0.203,-0ZM0.204,-0.61L0.204,-0.716L0.071,-0.716L0.071,-0.61L0.204,-0.61Z" style="fill:rgb(0,155,223);fill-rule:nonzero;"/>
            </g>
            <g transform="matrix(24,0,0,24,395.865,263.315)">
                <path d="M0.506,-0L0.506,-0.333C0.506,-0.39 0.495,-0.439 0.453,-0.481C0.424,-0.51 0.382,-0.527 0.33,-0.527C0.282,-0.527 0.234,-0.509 0.2,-0.473L0.2,-0.521L0.073,-0.521L0.073,-0L0.203,-0L0.203,-0.315C0.203,-0.386 0.249,-0.41 0.29,-0.41C0.331,-0.41 0.376,-0.386 0.376,-0.315L0.376,-0L0.506,-0Z" style="fill:rgb(0,155,223);fill-rule:nonzero;"/>
            </g>
            <g transform="matrix(24,0,0,24,409.617,263.315)">
                <rect x="0.068" y="-0.148" width="0.149" height="0.148" style="fill-rule:nonzero;"/>
            </g>
            <g transform="matrix(24,0,0,24,416.457,263.315)">
                <path d="M0.294,-0L0.294,-0.11L0.244,-0.11C0.211,-0.11 0.198,-0.126 0.198,-0.157L0.198,-0.712L0.068,-0.712L0.068,-0.149C0.068,-0.075 0.113,-0 0.22,-0L0.294,-0Z" style="fill-rule:nonzero;"/>
            </g>
            <g transform="matrix(24,0,0,24,424.257,263.315)">
                <path d="M0.203,-0L0.203,-0.506L0.073,-0.506L0.073,-0L0.203,-0ZM0.204,-0.61L0.204,-0.716L0.071,-0.716L0.071,-0.61L0.204,-0.61Z" style="fill-rule:nonzero;"/>
            </g>
            <g transform="matrix(24,0,0,24,430.857,263.315)">
                <path d="M0.506,-0L0.506,-0.333C0.506,-0.39 0.495,-0.439 0.453,-0.481C0.424,-0.51 0.382,-0.527 0.33,-0.527C0.282,-0.527 0.234,-0.509 0.2,-0.473L0.2,-0.521L0.073,-0.521L0.073,-0L0.203,-0L0.203,-0.315C0.203,-0.386 0.249,-0.41 0.29,-0.41C0.331,-0.41 0.376,-0.386 0.376,-0.315L0.376,-0L0.506,-0Z" style="fill-rule:nonzero;"/>
            </g>
            <g transform="matrix(24,0,0,24,444.609,263.315)">
                <path d="M0.547,-0L0.347,-0.311L0.533,-0.521L0.376,-0.521L0.203,-0.308L0.203,-0.712L0.073,-0.712L0.073,-0L0.203,-0L0.203,-0.155L0.258,-0.217L0.386,-0L0.547,-0Z" style="fill-rule:nonzero;"/>
            </g>
        </g>
    </g>
</svg>
